# xmcd CD database file
#
# Track frame offsets:
#	150
#	22295
#	40591
#	64467
#	79150
#	98451
#	116973
#	131579
#	139865
#	159870
#	170920
#	185326
#	199887
#
# Disc length: 2880 seconds
#
# Revision: 2
# Processed by: cddbd v1.5.1PL2 Copyright (c) Steve Scherf et al.
# Submitted via: CDex 1.40Release
#
DISCID=b90b3e0d
DTITLE=Nanae - Heart Cocktail - Ten of Hearts
DYEAR=2006
DGENRE=Jazz
TTITLE0=Emoldurada
TTITLE1=Purple Avenue
TTITLE2=Vivir lo Nuestro
TTITLE3=Softly as in a Morning Sunrise
TTITLE4=Love for Sale
TTITLE5=Tuxedo Junction
TTITLE6=Boy from New York City
TTITLE7=Avalon
TTITLE8=Tenderly
TTITLE9=Caravan
TTITLE10=Lover Come Back to Me
TTITLE11=Maria
TTITLE12=No me Conviene
EXTD=YEAR: 2006 ID3G: 8
EXTT0=
EXTT1=
EXTT2=
EXTT3=
EXTT4=
EXTT5=
EXTT6=
EXTT7=
EXTT8=
EXTT9=
EXTT10=
EXTT11=
EXTT12=
PLAYORDER=
